<svg width="256" height="70" viewBox="0 0 256 70" fill="none" xmlns="http://www.w3.org/2000/svg">
<g clip-path="url(#clip0_11996_94)">
<path d="M111.927 2.03066C111.927 0.909158 112.826 0 113.936 0H142.064C143.174 0 144.073 0.909158 144.073 2.03066V30.4599C144.073 31.5814 143.174 32.4906 142.064 32.4906H113.936C112.826 32.4906 111.927 31.5814 111.927 30.4599V2.03066Z" fill="#0278FE"/>
<path d="M144.073 6.0918H111.927V8.12246H144.073V6.0918Z" fill="#2A2C2F"/>
<path d="M124.986 6.0918H122.977V32.4904H124.986V6.0918Z" fill="#2A2C2F"/>
<path d="M119.273 69.7978L120.115 66.971H124.938L125.779 69.7978H130.061L125.238 55.0293H119.815L114.992 69.7978H119.273ZM121.014 63.9711L122.469 59.0964H122.584L124.04 63.9711H121.014Z" fill="white"/>
<path d="M131.468 69.7978H135.435V64.923H136.804L139.373 69.7978H143.683L140.714 64.2884C142.27 63.5313 143.197 62.0963 143.197 60.0483C143.197 56.9042 141.022 55.0293 137.775 55.0293H131.468V69.7978ZM135.435 61.8078V58.231H136.834C138.225 58.231 139.06 58.7791 139.06 60.0483C139.06 61.3102 138.225 61.8078 136.834 61.8078H135.435Z" fill="white"/>
<path d="M144.489 58.2599H148.884V69.7978H152.793V58.2599H157.188V55.0293H144.489V58.2599Z" fill="white"/>
<path d="M172.173 59.9043H176.182C175.876 56.9404 173.215 54.8276 169.761 54.8276C165.823 54.8276 162.627 57.5678 162.627 62.4426C162.627 67.1154 165.524 69.9998 169.79 69.9998C173.615 69.9998 176.354 67.6346 176.354 63.5963V61.5484H169.876V64.404H172.53C172.495 65.6876 171.595 66.5096 169.818 66.5096C167.764 66.5096 166.708 64.9809 166.708 62.3848C166.708 59.8249 167.849 58.3178 169.848 58.3178C171.088 58.3178 171.931 58.8946 172.173 59.9043Z" fill="white"/>
<path d="M181.548 69.7978L182.39 66.971H187.214L188.055 69.7978H192.336L187.513 55.0293H182.09L177.267 69.7978H181.548ZM183.289 63.9711L184.744 59.0964H184.859L186.315 63.9711H183.289Z" fill="white"/>
<path d="M193.743 69.7978H203.618V66.5672H197.71V55.0293H193.743V69.7978Z" fill="white"/>
<path d="M205.221 69.7978H215.095V66.5672H209.188V55.0293H205.221V69.7978Z" fill="white"/>
<path d="M216.699 69.7978H227.201V66.5672H220.665V64.0289H226.688V60.7982H220.665V58.2599H227.229V55.0293H216.699V69.7978Z" fill="white"/>
<path d="M229.197 69.7978H233.164V64.923H234.533L237.102 69.7978H241.412L238.443 64.2884C239.999 63.5313 240.926 62.0963 240.926 60.0483C240.926 56.9042 238.751 55.0293 235.504 55.0293H229.197V69.7978ZM233.164 61.8078V58.231H234.563C235.954 58.231 236.789 58.7791 236.789 60.0483C236.789 61.3102 235.954 61.8078 234.563 61.8078H233.164Z" fill="white"/>
<path d="M241.331 55.0293L246.697 65.1538V69.7978H250.635V65.1538L256 55.0293H251.577L248.723 61.029H248.608L245.756 55.0293H241.331Z" fill="white"/>
<path d="M109.553 55.0293V69.7977H106.243L100.963 62.0385H100.878V69.7977H96.9109V55.0293H100.278L105.472 62.7596H105.587V55.0293H109.553Z" fill="white"/>
<path d="M84.4137 69.7977V55.0293H94.9444V58.2599H88.3806V60.7982H94.4022V64.0288H88.3806V66.5671H94.9159V69.7977H84.4137Z" fill="white"/>
<path d="M70.2213 58.2599V55.0293H82.921V58.2599H78.526V69.7977H74.6163V58.2599H70.2213Z" fill="white"/>
<path d="M58.1223 69.7977V55.0293H68.6531V58.2599H62.0892V60.7982H68.1108V64.0288H62.0892V66.5671H68.6245V69.7977H58.1223Z" fill="white"/>
<path d="M46.6439 69.7977V55.0293H50.6108V66.5671H56.5183V69.7977H46.6439Z" fill="white"/>
<path d="M33.4591 69.7977V55.0293H39.7661C40.8506 55.0293 41.7995 55.2456 42.6129 55.6783C43.4262 56.111 44.0588 56.7191 44.5107 57.5027C44.9625 58.2863 45.1885 59.2021 45.1885 60.2502C45.1885 61.3078 44.9554 62.2236 44.4893 62.9976C44.0279 63.7716 43.3787 64.3677 42.5415 64.786C41.7091 65.2042 40.7365 65.4133 39.6234 65.4133H35.8564V62.2981H38.8244C39.2905 62.2981 39.6877 62.2164 40.0159 62.0529C40.3488 61.8847 40.6033 61.6467 40.7793 61.339C40.96 61.0314 41.0504 60.6684 41.0504 60.2502C41.0504 59.8271 40.96 59.4665 40.7793 59.1685C40.6033 58.8656 40.3488 58.6349 40.0159 58.4762C39.6877 58.3128 39.2905 58.231 38.8244 58.231H37.426V69.7977H33.4591Z" fill="white"/>
<path d="M31.5795 55.0293V69.7977H27.6127V55.0293H31.5795Z" fill="white"/>
<path d="M14.1924 69.7977V55.0293H20.4994C21.5839 55.0293 22.5328 55.2288 23.3461 55.6278C24.1595 56.0268 24.7921 56.6013 25.244 57.3513C25.6958 58.1012 25.9218 59.0002 25.9218 60.0482C25.9218 61.1059 25.6887 61.9977 25.2226 62.7236C24.7612 63.4495 24.1119 63.9975 23.2748 64.3677C22.4424 64.7379 21.4697 64.923 20.3567 64.923H16.5896V61.8078H19.5576C20.0238 61.8078 20.4209 61.7501 20.7491 61.6347C21.0821 61.5145 21.3365 61.3246 21.5125 61.065C21.6933 60.8054 21.7837 60.4665 21.7837 60.0482C21.7837 59.6252 21.6933 59.2815 21.5125 59.0171C21.3365 58.7478 21.0821 58.5507 20.7491 58.4257C20.4209 58.2959 20.0238 58.231 19.5576 58.231H18.1592V69.7977H14.1924ZM22.754 63.0192L26.4069 69.7977H22.0976L18.5303 63.0192H22.754Z" fill="white"/>
<path d="M0 58.2599V55.0293H12.6997V58.2599H8.30474V69.7977H4.39495V58.2599H0Z" fill="white"/>
</g>
<defs>
<clipPath id="clip0_11996_94">
<rect width="256" height="70" fill="white"/>
</clipPath>
</defs>
</svg>
